# xmcd CD database file
#
# Track frame offsets:
#	150
#	20024
#	39109
#	55542
#	71438
#	90382
#	108516
#	126284
#	144106
#	163597
#	180455
#	195595
#	213060
#	234033
#	252098
#	273374
#	296278
#	315008
#
# Disc length: 4427 seconds
#
# Revision: 3
# Processed by: cddbd v1.5.2PL0 Copyright (c) Steve Scherf et al.
# Submitted via: CDex 1.51
#
DISCID=d9114912
DTITLE=Various Artist - EZH-93
DYEAR=1900
DGENRE=Blues
TTITLE0=Gotye Ft Kimbra - Somebody That I Used To Know
TTITLE1=David Guetta Ft Sia - Titanium
TTITLE2=Alyssa Reid Ft Jump Smokers - Alone Again
TTITLE3=Olly Murs - Oh My Goodness
TTITLE4=JLS - Proud
TTITLE5=Cover Drive - Twilight
TTITLE6=Kelly Clarkson - What Doesn't Kill You (stronger)
TTITLE7=Madonna Ft Nicky Minaj and Mia - Give Me All Your Luvin'
TTITLE8=Jason Maraz - I Won't Give Up
TTITLE9=Ed Sheeran - Drunk
TTITLE10=Marcus Collins - Seven Nation Army
TTITLE11=Nicky Minaj - Starships
TTITLE12=Christina Perry - Arms
TTITLE13=Katy Perry - Part Of Me
TTITLE14=Labrinth - Last Time
TTITLE15=Lana Del Ray - Born To Die
TTITLE16=Alexandra Burke Ft Erick Morillo - Elephant
TTITLE17=Michael Kiwanuka - Home Again
EXTD=
EXTT0=
EXTT1=
EXTT2=
EXTT3=
EXTT4=
EXTT5=
EXTT6=
EXTT7=
EXTT8=
EXTT9=
EXTT10=
EXTT11=
EXTT12=
EXTT13=
EXTT14=
EXTT15=
EXTT16=
EXTT17=
PLAYORDER=
